<?xml version="1.0" standalone="no"?>
<!DOCTYPE svg PUBLIC "-//W3C//DTD SVG 20010904//EN"
 "http://www.w3.org/TR/2001/REC-SVG-20010904/DTD/svg10.dtd">
<svg version="1.0" xmlns="http://www.w3.org/2000/svg"
 width="700.000000pt" height="700.000000pt" viewBox="0 0 700.000000 700.000000"
 preserveAspectRatio="xMidYMid meet">
<metadata>
Created by potrace 1.14, written by Peter Selinger 2001-2017
</metadata>
<g transform="translate(0.000000,700.000000) scale(0.100000,-0.100000)"
fill="#000000" stroke="none">
<path d="M3280 6993 c-19 -1 -87 -8 -150 -14 -551 -52 -1137 -268 -1615 -596
-246 -169 -594 -496 -769 -723 -409 -529 -651 -1123 -728 -1790 -16 -144 -16
-588 0 -725 53 -441 159 -805 342 -1180 297 -609 769 -1120 1362 -1474 180
-108 599 -295 680 -304 20 -2 76 123 640 1423 340 784 618 1428 618 1432 0 5
-505 9 -1122 10 l-1121 3 1681 1843 c925 1014 1682 1847 1682 1852 0 4 -39 22
-87 40 -391 141 -810 213 -1222 208 -86 0 -172 -3 -191 -5z"/>
<path d="M4147 5210 c-472 -792 -860 -1447 -863 -1455 -5 -13 118 -15 1004
-17 l1009 -3 -1334 -1804 c-734 -992 -1331 -1807 -1326 -1811 21 -20 331 -79
528 -102 145 -16 560 -16 700 0 841 100 1554 445 2131 1034 203 206 348 390
487 618 274 450 434 920 499 1465 19 164 16 596 -6 770 -84 673 -335 1270
-755 1795 -42 52 -139 160 -216 239 -215 221 -425 389 -676 544 -102 63 -300
167 -316 167 -5 0 -394 -649 -866 -1440z"/>
</g>
</svg>
